<?xml version="1.0" ?><!-- Uploaded to: SVG Repo, www.svgrepo.com, Generator: SVG Repo Mixer Tools -->
<svg
  fill="currentColor"
  viewBox="0 -0.08 20 20"
  xmlns="http://www.w3.org/2000/svg"
>   
  <path
    d="M9.4,11.42H8.54a6.37,6.37,0,0,0,1.19-1.36,1,1,0,0,0-.2-1A1.22,1.22,0,0,0,8.3,8.68a1.71,1.71,0,0,0-1,.85.38.38,0,0,0,.17.5A.39.39,0,0,0,8,9.86.94.94,0,0,1,8.5,9.4.46.46,0,0,1,9,9.54.24.24,0,0,1,9,9.78a13.67,13.67,0,0,1-1.7,1.74.37.37,0,0,0,.25.65H9.4a.37.37,0,0,0,.37-.37A.38.38,0,0,0,9.4,11.42Z"
  />
    
  <path
    d="M12.74,9.68a.39.39,0,0,0-.53,0l-.66.66-.66-.66a.39.39,0,0,0-.53,0,.37.37,0,0,0,0,.53l.66.66-.66.66a.37.37,0,0,0,0,.53.34.34,0,0,0,.26.11.36.36,0,0,0,.27-.11l.66-.66.66.66a.34.34,0,0,0,.26.11.36.36,0,0,0,.27-.11.39.39,0,0,0,0-.53l-.66-.66.66-.66A.39.39,0,0,0,12.74,9.68Z"
  />
</svg>